<svg height="295" width="2500" xmlns="http://www.w3.org/2000/svg" viewBox="0 -2.1500000000000004 891.98 111.63000000000001"><g fill="#039afe"><path d="M609.07.47l19.4 35.31L648.02.45h33.78v107.83h-32.5v-49.5l-1.18-.55-19.87 33.82-19.28-33.14-1.15.29v49.2h-32.35V.47zM279.05 108.37h-29.8l-31.77-47.24v47.14H184.7V.56h31.7l29 43.1 1-.2V.62h32.65zM797.85.53h31.4l29.79 44.25V.68h32.94v107.59h-29.91c-10.1-15-20.5-30.44-31.52-46.82v46.8h-32.7z"/></g><path d="M92.56 108.53H54.99L38.25 77.36a7.23 7.23 0 0 0-5.17.15v30.84H0V1.04C1.23-.17 2.64.2 3.92.22c15.32.15 30.65-.42 46 .38a62.36 62.36 0 0 1 12.33 1.84C76.84 6.2 86.54 14.97 88.81 30.16c2.35 15.7-1 29.56-15.49 38.75-.56.36-1.09.76-1.61 1.17-.11.08-.16.27-.35.62zM33.25 52.19h10.42a18.54 18.54 0 0 0 3-.26c5.58-.93 8.58-4.47 8.95-10.34.41-6.52-2.21-11-7.7-12.31-4.84-1.11-9.78-.42-14.63-.44zM550.14 70.71c6.88 12.24 13.86 24.65 21.11 37.56h-37.56l-16.5-30.71c-1.57-.94-3.05-.59-5.29-.31v31.18h-33.07V.87c1.32-1 2.87-.67 4.33-.66 15.14.16 30.3-.5 45.43.45a64.37 64.37 0 0 1 11.35 1.49c14.58 3.61 24.91 11.82 27.5 27.38 2.65 16-.72 29.8-15.18 39.25-.55.37-1.08.77-1.6 1.17a4.49 4.49 0 0 0-.52.76zm-38.13-18.74c4.72 0 9 .35 13.27-.08 6-.61 9-4.58 9.12-11 .08-6.8-2.91-11.08-8.89-11.83a51.78 51.78 0 0 0-13.5.13zM290.25.07c20.08 1 40.18-2.22 59.7 3.66 20.06 6 32.14 21.69 33.26 42.59.44 8.15.53 16.31-1.42 24.33-5.07 20.86-21.21 34.52-43.78 37.06-15.77 1.77-31.58.53-47.27 1-1.28-3.73-1.74-100.08-.49-108.64zm33.15 78.64c9.31.27 18.32-.22 22.8-9.33 5.19-10.54 5.41-21.8-1.23-31.9-5-7.54-13.32-7.47-21.57-7.43z" fill="#049afe"/><path d="M129.68 67.3v12.34h46.25v28.75H96.61V.48h78.53v28.37h-45c-1.29 4.12-.41 7.84-.64 12H172v26.42zM390.35.41h78.6v28.46h-45.43v11.81h42.13v26.53h-41.88c-.95 4.24-.37 8-.46 12.41h46.5v28.66h-79.46zM757.25 0l37.21 108.35h-35.39c-1.58-4.9-3.24-10.06-4.91-15.21h-29.91l-4.6 15.12h-34.9C697.25 71.97 709.54 36.04 721.91 0zm-17.52 42.61h-1.06c-2.37 8.37-4.74 16.74-7.21 25.44h15.64c-2.54-8.76-4.96-17.1-7.37-25.44z" fill="#039afe"/></svg>